<svg xmlns="http://www.w3.org/2000/svg" viewBox="0 0 21.474 17.448"><defs><style>.a{fill:#fff;fill-rule:evenodd;}</style></defs><path class="a" d="M38.863,21.387a7.162,7.162,0,0,1-2.763.98h0a4.429,4.429,0,0,0-7.52,4.049h0a12.269,12.269,0,0,1-9.133-4.6,4.432,4.432,0,0,0,1.344,5.853,2.848,2.848,0,0,1-1.935-.5,4.27,4.27,0,0,0,3.417,4.33,3.508,3.508,0,0,1-1.845.14c.141,1.3,1.965,3.006,3.96,3.006A7.879,7.879,0,0,1,18,36.489a13.311,13.311,0,0,0,6.93,1.959,12.308,12.308,0,0,0,12.4-12.938c0-.008,0-.016,0-.024s0-.037,0-.056,0-.043,0-.065A7.642,7.642,0,0,0,39.474,23.1a7.763,7.763,0,0,1-2.457.7,4.707,4.707,0,0,0,1.845-2.406" transform="translate(-18 -21)"/></svg>