<svg xmlns="http://www.w3.org/2000/svg" viewBox="0 0 44.211 44.211"><defs><style>.a{fill:#6e6e6e;}.b{fill:#fff;fill-rule:evenodd;}</style></defs><ellipse class="a" cx="22.106" cy="22.106" rx="22.106" ry="22.106" transform="translate(0 0)"/><path class="b" d="M19.757,23.032a2.643,2.643,0,0,0,2.756-2.515A2.644,2.644,0,0,0,19.757,18,2.645,2.645,0,0,0,17,20.517a2.643,2.643,0,0,0,2.757,2.515" transform="translate(-6.263 -6.631)"/><path class="b" d="M18,43.26h4.944V29H18Z" transform="translate(-6.631 -10.684)"/><path class="b" d="M33.936,34.96c0-1.635.774-3.234,2.624-3.234s2.3,1.6,2.3,3.2v7.788h4.922V34.6c0-5.632-3.329-6.6-5.377-6.6a5.005,5.005,0,0,0-4.474,2.369v-1.92H29v14.26h4.936Z" transform="translate(-10.684 -10.315)"/></svg>