<svg xmlns="http://www.w3.org/2000/svg" viewBox="0 0 22.806 21.298"><defs><style>.a{fill:#fefefe;}</style></defs><path class="a" d="M134.769,135.14l-1.477-.078a1.766,1.766,0,0,0-1.244.467,6.442,6.442,0,0,0-2.177,3.343c-.544,2.333.311,5.132,2.333,7.931a23.562,23.562,0,0,0,12.751,9.252,6.316,6.316,0,0,0,5.287-.622,4.587,4.587,0,0,0,2.022-2.955l.233-1.089a.782.782,0,0,0-.389-.855l-4.9-2.255a.742.742,0,0,0-.933.233L144.332,151a.6.6,0,0,1-.622.156,15.11,15.11,0,0,1-8.164-7,.587.587,0,0,1,.078-.622l1.866-2.1a.958.958,0,0,0,.156-.778l-2.255-5.054a.677.677,0,0,0-.622-.467" transform="translate(-129.71 -135.062)"/></svg>