<svg xmlns="http://www.w3.org/2000/svg" viewBox="0 0 142.403 142.404"><defs><style>.a{fill:#2f2e2e;}</style></defs><path class="a" d="M687.948,1065.749c14.24-14.241,30.617-20.649,50.553-20.649s36.313,7.12,50.553,20.649S809.7,1096.366,809.7,1116.3s-7.12,36.313-20.649,50.553S758.438,1187.5,738.5,1187.5s-36.313-7.12-50.553-20.649S667.3,1136.237,667.3,1116.3,674.42,1079.276,687.948,1065.749Zm66.217,65.505,27.057-58.385-58.385,27.057-27.057,58.386Zm-21.36-21.36a8.663,8.663,0,1,1-2.136,5.7A8.087,8.087,0,0,1,732.805,1109.893Z" transform="translate(-667.3 -1045.1)"/></svg>