<svg xmlns="http://www.w3.org/2000/svg" viewBox="0 0 17.446 16.444"><defs><style>.a{fill:#767272;}</style></defs><path class="a" d="M8.106,10.017A1.03,1.03,0,1,0,9.2,11.044,1.061,1.061,0,0,0,8.106,10.017Zm5.234,0a1.03,1.03,0,1,0,1.09,1.028A1.061,1.061,0,0,0,13.34,10.017ZM10.723,2A8.487,8.487,0,0,0,2,10.222a8.487,8.487,0,0,0,8.723,8.222,8.487,8.487,0,0,0,8.723-8.222A8.487,8.487,0,0,0,10.723,2Zm0,14.8a6.8,6.8,0,0,1-6.978-6.578,6.288,6.288,0,0,1,.044-.707A8.52,8.52,0,0,0,8.333,5.1a8.867,8.867,0,0,0,7.118,3.478,9.009,9.009,0,0,0,1.963-.214,6.2,6.2,0,0,1,.288,1.858A6.8,6.8,0,0,1,10.723,16.8Z" transform="translate(-2 -2)"/></svg>