<svg xmlns="http://www.w3.org/2000/svg" viewBox="0 0 14.911 19.57"><defs><style>.a{fill:#767272;}</style></defs><path class="a" d="M830.147,1085.323a1.911,1.911,0,0,1,1.864,1.864v9.319a1.911,1.911,0,0,1-1.864,1.864H818.964a1.911,1.911,0,0,1-1.864-1.864v-9.319a1.911,1.911,0,0,1,1.864-1.864h.932v-1.864a4.23,4.23,0,0,1,1.4-3.262,4.929,4.929,0,0,1,3.262-1.4,4.372,4.372,0,0,1,3.262,1.4,4.928,4.928,0,0,1,1.4,3.262v1.864Zm-2.7,0v-1.864a2.891,2.891,0,0,0-.839-2.05,2.889,2.889,0,0,0-4.939,2.05v1.864Zm-4.194,7.828a1.8,1.8,0,1,0-.559-1.3A1.84,1.84,0,0,0,823.251,1093.152Z" transform="translate(-817.1 -1078.8)"/></svg>