<svg xmlns="http://www.w3.org/2000/svg" viewBox="0 0 22 15"><defs><style>.a{fill:#767272;}</style></defs><path class="a" d="M227.1,1223.6a11.738,11.738,0,0,1,13.4,0,11.943,11.943,0,0,1,4.3,5.4,11.792,11.792,0,0,1-17.7,5.4,11.943,11.943,0,0,1-4.3-5.4A11.321,11.321,0,0,1,227.1,1223.6Zm3.1,9a4.852,4.852,0,0,0,3.5,1.5,4.539,4.539,0,0,0,3.5-1.5,5.288,5.288,0,0,0,1.5-3.5,4.691,4.691,0,0,0-1.5-3.5,5.288,5.288,0,0,0-3.5-1.5,4.539,4.539,0,0,0-3.5,1.5,5.288,5.288,0,0,0-1.5,3.5A4.852,4.852,0,0,0,230.2,1232.6Zm1.5-5.7a2.9,2.9,0,1,1-.9,2.1A2.878,2.878,0,0,1,231.7,1226.9Z" transform="translate(-222.8 -1221.5)"/></svg>