<svg xmlns="http://www.w3.org/2000/svg" viewBox="0 0 24.813 24.813">
  <defs>
    <style>
      .cls-1 {
        fill: #2d3041;
      }

      .cls-2 {
        fill: #fff;
        fill-rule: evenodd;
      }
    </style>
  </defs>
  <g id="Group_2" data-name="Group 2" transform="translate(-1211.092 -30.187)">
    <ellipse id="Oval-1" class="cls-1" cx="12.406" cy="12.406" rx="12.406" ry="12.406" transform="translate(1211.092 30.187)"/>
    <path id="Fill-1" class="cls-2" d="M29.709,21.217a4.019,4.019,0,0,1-1.551.55h0a2.486,2.486,0,0,0-4.22,2.273h0a6.886,6.886,0,0,1-5.126-2.58,2.488,2.488,0,0,0,.754,3.285,1.6,1.6,0,0,1-1.086-.281,2.4,2.4,0,0,0,1.918,2.43,1.969,1.969,0,0,1-1.035.079,2.351,2.351,0,0,0,2.222,1.687A4.422,4.422,0,0,1,18,29.693a7.471,7.471,0,0,0,3.889,1.1,6.907,6.907,0,0,0,6.959-7.261s0-.009,0-.014,0-.021,0-.031,0-.024,0-.036a4.289,4.289,0,0,0,1.205-1.273,4.357,4.357,0,0,1-1.379.391,2.642,2.642,0,0,0,1.036-1.35" transform="translate(1199.473 16.631)"/>
  </g>
</svg>
